<svg xmlns="http://www.w3.org/2000/svg" viewBox="0 0 1920 953" preserveAspectRatio="xMidYMid" width="1920" height="953" style="shape-rendering: auto; display: block; background: rgb(255, 255, 255);"><g data-idx="1"><rect x="0" y="-1" width="314.9385070800781" height="25.825" fill="#fff7f3" data-idx="2">
  
  
</rect><rect x="313.9385070800781" y="-1" width="261.9012756347656" height="25.825" fill="#fde0dd" data-idx="5">
  
  
</rect><rect x="575.8397827148438" y="-1" width="231.94659423828125" height="25.825" fill="#fcc5c0" data-idx="8">
  
  
</rect><rect x="807.1375122070312" y="-1" width="213.40452575683594" height="25.825" fill="#fa9fb5" data-idx="11">
  
  
</rect><rect x="1019.8931884765625" y="-1" width="48.27507781982422" height="25.825" fill="#f768a1" data-idx="14">
  
  
</rect><rect x="1068.1683349609375" y="-1" width="353.4579162597656" height="25.825" fill="#dd3497" data-idx="17">
  
  
</rect><rect x="1420.626220703125" y="-1" width="274.83172607421875" height="25.825" fill="#ae017e" data-idx="20">
  
  
</rect><rect x="1694.80908203125" y="-1" width="191.9773406982422" height="25.825" fill="#7a0177" data-idx="23">
  
  
</rect><rect x="1885.786376953125" y="-1" width="34.21359634399414" height="25.825" fill="#49006a" data-idx="26">
  
  
</rect><rect x="0" y="22.8" width="106.47625732421875" height="25.825" fill="#fff7f3" data-idx="29">
  
  
</rect><rect x="105.47625732421875" y="22.8" width="146.5078582763672" height="25.825" fill="#fde0dd" data-idx="32">
  
  
</rect><rect x="251.96824645996094" y="22.8" width="265.46038818359375" height="25.825" fill="#fcc5c0" data-idx="35">
  
  
</rect><rect x="517.4286499023438" y="22.8" width="264.6824951171875" height="25.825" fill="#fa9fb5" data-idx="38">
  
  
</rect><rect x="781.1270141601562" y="22.8" width="314.6189880371094" height="25.825" fill="#f768a1" data-idx="41">
  
  
</rect><rect x="1094.7459716796875" y="22.8" width="170.66676330566406" height="25.825" fill="#dd3497" data-idx="44">
  
  
</rect><rect x="1265.4127197265625" y="22.8" width="273.6031188964844" height="25.825" fill="#ae017e" data-idx="47">
  
  
</rect><rect x="1538.03173828125" y="22.8" width="285" height="25.825" fill="#7a0177" data-idx="50">
  
  
</rect><rect x="1823.03173828125" y="22.8" width="96.96824645996094" height="25.825" fill="#49006a" data-idx="53">
  
  
</rect><rect x="0" y="46.6" width="285.8904113769531" height="25.825" fill="#fff7f3" data-idx="56">
  
  
</rect><rect x="284.8904113769531" y="46.6" width="302.0604553222656" height="25.825" fill="#fde0dd" data-idx="59">
  
  
</rect><rect x="585.9546508789062" y="46.6" width="249.01512145996094" height="25.825" fill="#fcc5c0" data-idx="62">
  
  
</rect><rect x="834.9660034179688" y="46.6" width="119.99622344970703" height="25.825" fill="#fa9fb5" data-idx="65">
  
  
</rect><rect x="953.9660034179688" y="46.6" width="192.8148193359375" height="25.825" fill="#f768a1" data-idx="68">
  
  
</rect><rect x="1145.7845458984375" y="46.6" width="161.01889038085938" height="25.825" fill="#dd3497" data-idx="71">
  
  
</rect><rect x="1306.7996826171875" y="46.6" width="221.0604705810547" height="25.825" fill="#ae017e" data-idx="74">
  
  
</rect><rect x="1526.860107421875" y="46.6" width="61.07936477661133" height="25.825" fill="#7a0177" data-idx="77">
  
  
</rect><rect x="1587.9395751953125" y="46.6" width="332.0604553222656" height="25.825" fill="#49006a" data-idx="80">
  
  
</rect><rect x="0" y="70.5" width="273.85260009765625" height="25.825" fill="#fff7f3" data-idx="83">
  
  
</rect><rect x="272.85260009765625" y="70.5" width="259.9735412597656" height="25.825" fill="#fde0dd" data-idx="86">
  
  
</rect><rect x="532.826171875" y="70.5" width="115.9244155883789" height="25.825" fill="#fcc5c0" data-idx="89">
  
  
</rect><rect x="647.7543334960938" y="70.5" width="134.9697723388672" height="25.825" fill="#fa9fb5" data-idx="92">
  
  
</rect><rect x="782.7203369140625" y="70.5" width="343.15118408203125" height="25.825" fill="#f768a1" data-idx="95">
  
  
</rect><rect x="1124.875244140625" y="70.5" width="258.1247253417969" height="25.825" fill="#dd3497" data-idx="98">
  
  
</rect><rect x="1382" y="70.5" width="127.08314514160156" height="25.825" fill="#ae017e" data-idx="101">
  
  
</rect><rect x="1508.0831298828125" y="70.5" width="242.9659881591797" height="25.825" fill="#7a0177" data-idx="104">
  
  
</rect><rect x="1751.049072265625" y="70.5" width="168.95086669921875" height="25.825" fill="#49006a" data-idx="107">
  
  
</rect><rect x="0" y="94.3" width="203.38186645507812" height="25.825" fill="#fff7f3" data-idx="110">
  
  
</rect><rect x="202.38186645507812" y="94.3" width="89.10679626464844" height="25.825" fill="#fde0dd" data-idx="113">
  
  
</rect><rect x="291.4886779785156" y="94.3" width="238.14561462402344" height="25.825" fill="#fcc5c0" data-idx="116">
  
  
</rect><rect x="528.63427734375" y="94.3" width="82.06797790527344" height="25.825" fill="#fa9fb5" data-idx="119">
  
  
</rect><rect x="609.7022705078125" y="94.3" width="100.75566101074219" height="25.825" fill="#f768a1" data-idx="122">
  
  
</rect><rect x="710.4579467773438" y="94.3" width="177.3203887939453" height="25.825" fill="#dd3497" data-idx="125">
  
  
</rect><rect x="886.7783203125" y="94.3" width="299.35113525390625" height="25.825" fill="#ae017e" data-idx="128">
  
  
</rect><rect x="1185.12939453125" y="94.3" width="362.6181335449219" height="25.825" fill="#7a0177" data-idx="131">
  
  
</rect><rect x="1547.74755859375" y="94.3" width="372.2524108886719" height="25.825" fill="#49006a" data-idx="134">
  
  
</rect><rect x="0" y="118.1" width="284.6031188964844" height="25.825" fill="#fff7f3" data-idx="137">
  
  
</rect><rect x="283.6031188964844" y="118.1" width="132.17462158203125" height="25.825" fill="#fde0dd" data-idx="140">
  
  
</rect><rect x="414.7936096191406" y="118.1" width="222.38101196289062" height="25.825" fill="#fcc5c0" data-idx="143">
  
  
</rect><rect x="637.1587524414062" y="118.1" width="225.015869140625" height="25.825" fill="#fa9fb5" data-idx="146">
  
  
</rect><rect x="861.1904907226562" y="118.1" width="146.4286346435547" height="25.825" fill="#f768a1" data-idx="149">
  
  
</rect><rect x="1007.603271484375" y="118.1" width="314.0635070800781" height="25.825" fill="#dd3497" data-idx="152">
  
  
</rect><rect x="1321.666748046875" y="118.1" width="176.60311889648438" height="25.825" fill="#ae017e" data-idx="155">
  
  
</rect><rect x="1498.2540283203125" y="118.1" width="161.96824645996094" height="25.825" fill="#7a0177" data-idx="158">
  
  
</rect><rect x="1659.2381591796875" y="118.1" width="260.7618713378906" height="25.825" fill="#49006a" data-idx="161">
  
  
</rect><rect x="0" y="141.9" width="251.1284942626953" height="25.825" fill="#fff7f3" data-idx="164">
  
  
</rect><rect x="250.1284942626953" y="141.9" width="203.92063903808594" height="25.825" fill="#fde0dd" data-idx="167">
  
  
</rect><rect x="454.04913330078125" y="141.9" width="370.992431640625" height="25.825" fill="#fcc5c0" data-idx="170">
  
  
</rect><rect x="824.0415649414062" y="141.9" width="179.905517578125" height="25.825" fill="#fa9fb5" data-idx="173">
  
  
</rect><rect x="1003.9432983398438" y="141.9" width="268.9206237792969" height="25.825" fill="#f768a1" data-idx="176">
  
  
</rect><rect x="1271.8638916015625" y="141.9" width="330.13983154296875" height="25.825" fill="#dd3497" data-idx="179">
  
  
</rect><rect x="1601.007568359375" y="141.9" width="86" height="25.825" fill="#ae017e" data-idx="182">
  
  
</rect><rect x="1687.0037841796875" y="141.9" width="144.82615661621094" height="25.825" fill="#7a0177" data-idx="185">
  
  
</rect><rect x="1830.8299560546875" y="141.9" width="89.1700668334961" height="25.825" fill="#49006a" data-idx="188">
  
  
</rect><rect x="0" y="165.8" width="210.83172607421875" height="25.825" fill="#fff7f3" data-idx="191">
  
  
</rect><rect x="209.83172607421875" y="165.8" width="279.35113525390625" height="25.825" fill="#fde0dd" data-idx="194">
  
  
</rect><rect x="488.53399658203125" y="165.8" width="279.8624572753906" height="25.825" fill="#fcc5c0" data-idx="197">
  
  
</rect><rect x="767.74755859375" y="165.8" width="229.9854278564453" height="25.825" fill="#fa9fb5" data-idx="200">
  
  
</rect><rect x="997.7330322265625" y="165.8" width="275.83172607421875" height="25.825" fill="#f768a1" data-idx="203">
  
  
</rect><rect x="1273.213623046875" y="165.8" width="79.72492218017578" height="25.825" fill="#dd3497" data-idx="206">
  
  
</rect><rect x="1351.9384765625" y="165.8" width="88.2524185180664" height="25.825" fill="#ae017e" data-idx="209">
  
  
</rect><rect x="1440.19091796875" y="165.8" width="116.58738708496094" height="25.825" fill="#7a0177" data-idx="212">
  
  
</rect><rect x="1556.12939453125" y="165.8" width="363.87054443359375" height="25.825" fill="#49006a" data-idx="215">
  
  
</rect><rect x="0" y="189.6" width="64.96598815917969" height="25.825" fill="#fff7f3" data-idx="218">
  
  
</rect><rect x="63.96598434448242" y="189.6" width="159.95086669921875" height="25.825" fill="#fde0dd" data-idx="221">
  
  
</rect><rect x="222.92063903808594" y="189.6" width="288.1171569824219" height="25.825" fill="#fcc5c0" data-idx="224">
  
  
</rect><rect x="511.0340270996094" y="189.6" width="270.9168395996094" height="25.825" fill="#fa9fb5" data-idx="227">
  
  
</rect><rect x="781.9508666992188" y="189.6" width="198.07559204101562" height="25.825" fill="#f768a1" data-idx="230">
  
  
</rect><rect x="980.022705078125" y="189.6" width="283.94708251953125" height="25.825" fill="#dd3497" data-idx="233">
  
  
</rect><rect x="1262.9697265625" y="189.6" width="188.2456512451172" height="25.825" fill="#ae017e" data-idx="236">
  
  
</rect><rect x="1450.21923828125" y="189.6" width="341.05670166015625" height="25.825" fill="#7a0177" data-idx="239">
  
  
</rect><rect x="1790.2796630859375" y="189.6" width="129.7203369140625" height="25.825" fill="#49006a" data-idx="242">
  
  
</rect><rect x="0" y="213.4" width="256.0869140625" height="25.825" fill="#fff7f3" data-idx="245">
  
  
</rect><rect x="255.08692932128906" y="213.4" width="299.04913330078125" height="25.825" fill="#fde0dd" data-idx="248">
  
  
</rect><rect x="553.1360473632812" y="213.4" width="90.66741943359375" height="25.825" fill="#fcc5c0" data-idx="251">
  
  
</rect><rect x="642.803466796875" y="213.4" width="202.9093017578125" height="25.825" fill="#fa9fb5" data-idx="254">
  
  
</rect><rect x="844.716552734375" y="213.4" width="230.12472534179688" height="25.825" fill="#f768a1" data-idx="257">
  
  
</rect><rect x="1073.8450927734375" y="213.4" width="92.72789001464844" height="25.825" fill="#dd3497" data-idx="260">
  
  
</rect><rect x="1166.5692138671875" y="213.4" width="244.01133728027344" height="25.825" fill="#ae017e" data-idx="263">
  
  
</rect><rect x="1410.5804443359375" y="213.4" width="244.29856872558594" height="25.825" fill="#7a0177" data-idx="266">
  
  
</rect><rect x="1654.875244140625" y="213.4" width="265.1247253417969" height="25.825" fill="#49006a" data-idx="269">
  
  
</rect><rect x="0" y="237.3" width="223.34925842285156" height="25.825" fill="#fff7f3" data-idx="272">
  
  
</rect><rect x="222.34925842285156" y="237.3" width="177.7936248779297" height="25.825" fill="#fde0dd" data-idx="275">
  
  
</rect><rect x="399.14288330078125" y="237.3" width="260.44451904296875" height="25.825" fill="#fcc5c0" data-idx="278">
  
  
</rect><rect x="659.571533203125" y="237.3" width="183.44436645507812" height="25.825" fill="#fa9fb5" data-idx="281">
  
  
</rect><rect x="843.015869140625" y="237.3" width="208.7461395263672" height="25.825" fill="#f768a1" data-idx="284">
  
  
</rect><rect x="1050.761962890625" y="237.3" width="273.7301330566406" height="25.825" fill="#dd3497" data-idx="287">
  
  
</rect><rect x="1324.4921875" y="237.3" width="259.9047546386719" height="25.825" fill="#ae017e" data-idx="290">
  
  
</rect><rect x="1584.3809814453125" y="237.3" width="103.01587677001953" height="25.825" fill="#7a0177" data-idx="293">
  
  
</rect><rect x="1686.3968505859375" y="237.3" width="233.60311889648438" height="25.825" fill="#49006a" data-idx="296">
  
  
</rect><rect x="0" y="261.1" width="278.6941833496094" height="25.825" fill="#fff7f3" data-idx="299">
  
  
</rect><rect x="277.6941833496094" y="261.1" width="269.41259765625" height="25.825" fill="#fde0dd" data-idx="302">
  
  
</rect><rect x="546.1068115234375" y="261.1" width="312.6795959472656" height="25.825" fill="#fcc5c0" data-idx="305">
  
  
</rect><rect x="858.1375122070312" y="261.1" width="290.35113525390625" height="25.825" fill="#fa9fb5" data-idx="308">
  
  
</rect><rect x="1147.83984375" y="261.1" width="158.11488342285156" height="25.825" fill="#f768a1" data-idx="311">
  
  
</rect><rect x="1304.9547119140625" y="261.1" width="113.55664825439453" height="25.825" fill="#dd3497" data-idx="314">
  
  
</rect><rect x="1417.8624267578125" y="261.1" width="101.10679626464844" height="25.825" fill="#ae017e" data-idx="317">
  
  
</rect><rect x="1518.6181640625" y="261.1" width="250.84788513183594" height="25.825" fill="#7a0177" data-idx="320">
  
  
</rect><rect x="1768.817138671875" y="261.1" width="151.182861328125" height="25.825" fill="#49006a" data-idx="323">
  
  
</rect><rect x="0" y="284.9" width="317.0113525390625" height="25.825" fill="#fff7f3" data-idx="326">
  
  
</rect><rect x="316.0113525390625" y="284.9" width="256.1133728027344" height="25.825" fill="#fde0dd" data-idx="329">
  
  
</rect><rect x="571.1246948242188" y="284.9" width="120.9811019897461" height="25.825" fill="#fcc5c0" data-idx="332">
  
  
</rect><rect x="692.1058349609375" y="284.9" width="60.84126663208008" height="25.825" fill="#fa9fb5" data-idx="335">
  
  
</rect><rect x="751.9470825195312" y="284.9" width="227.95465087890625" height="25.825" fill="#f768a1" data-idx="338">
  
  
</rect><rect x="979.9017333984375" y="284.9" width="103.03023529052734" height="25.825" fill="#dd3497" data-idx="341">
  
  
</rect><rect x="1081.9320068359375" y="284.9" width="320.094482421875" height="25.825" fill="#ae017e" data-idx="344">
  
  
</rect><rect x="1401.0264892578125" y="284.9" width="200.12472534179688" height="25.825" fill="#7a0177" data-idx="347">
  
  
</rect><rect x="1601.151123046875" y="284.9" width="318.84881591796875" height="25.825" fill="#49006a" data-idx="350">
  
  
</rect><rect x="0" y="308.7" width="263.17462158203125" height="25.825" fill="#fff7f3" data-idx="353">
  
  
</rect><rect x="262.17462158203125" y="308.7" width="131.6824951171875" height="25.825" fill="#fde0dd" data-idx="356">
  
  
</rect><rect x="393.84124755859375" y="308.7" width="259.6824951171875" height="25.825" fill="#fcc5c0" data-idx="359">
  
  
</rect><rect x="653.5078735351562" y="308.7" width="302.7777404785156" height="25.825" fill="#fa9fb5" data-idx="362">
  
  
</rect><rect x="955.301513671875" y="308.7" width="259.2222595214844" height="25.825" fill="#f768a1" data-idx="365">
  
  
</rect><rect x="1214.523681640625" y="308.7" width="99.90474700927734" height="25.825" fill="#dd3497" data-idx="368">
  
  
</rect><rect x="1313.428466796875" y="308.7" width="111.33338165283203" height="25.825" fill="#ae017e" data-idx="371">
  
  
</rect><rect x="1424.7618408203125" y="308.7" width="161.7620086669922" height="25.825" fill="#7a0177" data-idx="374">
  
  
</rect><rect x="1586.52392578125" y="308.7" width="333.4761047363281" height="25.825" fill="#49006a" data-idx="377">
  
  
</rect><rect x="0" y="332.6" width="332.15118408203125" height="25.825" fill="#fff7f3" data-idx="380">
  
  
</rect><rect x="331.15118408203125" y="332.6" width="114.01133728027344" height="25.825" fill="#fde0dd" data-idx="383">
  
  
</rect><rect x="445.1587219238281" y="332.6" width="111.85638427734375" height="25.825" fill="#fcc5c0" data-idx="386">
  
  
</rect><rect x="557.01513671875" y="332.6" width="169" height="25.825" fill="#fa9fb5" data-idx="389">
  
  
</rect><rect x="725.01513671875" y="332.6" width="332.0869140625" height="25.825" fill="#f768a1" data-idx="392">
  
  
</rect><rect x="1057.10205078125" y="332.6" width="344.94329833984375" height="25.825" fill="#dd3497" data-idx="395">
  
  
</rect><rect x="1402.0416259765625" y="332.6" width="271.7959289550781" height="25.825" fill="#ae017e" data-idx="398">
  
  
</rect><rect x="1672.84130859375" y="332.6" width="75.15872955322266" height="25.825" fill="#7a0177" data-idx="401">
  
  
</rect><rect x="1747" y="332.6" width="173" height="25.825" fill="#49006a" data-idx="404">
  
  
</rect><rect x="0" y="356.4" width="26.988662719726562" height="25.825" fill="#fff7f3" data-idx="407">
  
  
</rect><rect x="25.988662719726562" y="356.4" width="282.8752746582031" height="25.825" fill="#fde0dd" data-idx="410">
  
  
</rect><rect x="308.86016845703125" y="356.4" width="378.9962158203125" height="25.825" fill="#fcc5c0" data-idx="413">
  
  
</rect><rect x="687.8563842773438" y="356.4" width="137.08692932128906" height="25.825" fill="#fa9fb5" data-idx="416">
  
  
</rect><rect x="824.9395141601562" y="356.4" width="225.97354125976562" height="25.825" fill="#f768a1" data-idx="419">
  
  
</rect><rect x="1050.9130859375" y="356.4" width="99.20408630371094" height="25.825" fill="#dd3497" data-idx="422">
  
  
</rect><rect x="1149.1171875" y="356.4" width="354.0755920410156" height="25.825" fill="#ae017e" data-idx="425">
  
  
</rect><rect x="1502.196533203125" y="356.4" width="343.8072509765625" height="25.825" fill="#7a0177" data-idx="428">
  
  
</rect><rect x="1846.0037841796875" y="356.4" width="73.99622344970703" height="25.825" fill="#49006a" data-idx="431">
  
  
</rect><rect x="0" y="380.2" width="177.33338928222656" height="25.825" fill="#fff7f3" data-idx="434">
  
  
</rect><rect x="176.33338928222656" y="380.2" width="213.57151794433594" height="25.825" fill="#fde0dd" data-idx="437">
  
  
</rect><rect x="388.9049072265625" y="380.2" width="243.6983642578125" height="25.825" fill="#fcc5c0" data-idx="440">
  
  
</rect><rect x="631.619140625" y="380.2" width="234.2063751220703" height="25.825" fill="#fa9fb5" data-idx="443">
  
  
</rect><rect x="864.8413696289062" y="380.2" width="237.63487243652344" height="25.825" fill="#f768a1" data-idx="446">
  
  
</rect><rect x="1102.4603271484375" y="380.2" width="226.76187133789062" height="25.825" fill="#dd3497" data-idx="449">
  
  
</rect><rect x="1329.2222900390625" y="380.2" width="128.5713653564453" height="25.825" fill="#ae017e" data-idx="452">
  
  
</rect><rect x="1456.7935791015625" y="380.2" width="202.22225952148438" height="25.825" fill="#7a0177" data-idx="455">
  
  
</rect><rect x="1659" y="380.2" width="261" height="25.825" fill="#49006a" data-idx="458">
  
  
</rect><rect x="0" y="404" width="215.06802368164062" height="25.825" fill="#fff7f3" data-idx="461">
  
  
</rect><rect x="214.06802368164062" y="404" width="319.1058349609375" height="25.825" fill="#fde0dd" data-idx="464">
  
  
</rect><rect x="533.1700439453125" y="404" width="210.905517578125" height="25.825" fill="#fcc5c0" data-idx="467">
  
  
</rect><rect x="743.0755615234375" y="404" width="271.10205078125" height="25.825" fill="#fa9fb5" data-idx="470">
  
  
</rect><rect x="1013.1776123046875" y="404" width="45.969764709472656" height="25.825" fill="#f768a1" data-idx="473">
  
  
</rect><rect x="1058.151123046875" y="404" width="71.905517578125" height="25.825" fill="#dd3497" data-idx="476">
  
  
</rect><rect x="1130.0528564453125" y="404" width="311.9244079589844" height="25.825" fill="#ae017e" data-idx="479">
  
  
</rect><rect x="1440.9810791015625" y="404" width="274.9395446777344" height="25.825" fill="#7a0177" data-idx="482">
  
  
</rect><rect x="1715.920654296875" y="404" width="204.07936096191406" height="25.825" fill="#49006a" data-idx="485">
  
  
</rect><rect x="0" y="427.8" width="182.04534912109375" height="25.825" fill="#fff7f3" data-idx="488">
  
  
</rect><rect x="181.04534912109375" y="427.8" width="118.04534912109375" height="25.825" fill="#fde0dd" data-idx="491">
  
  
</rect><rect x="298.094482421875" y="427.8" width="346.9130859375" height="25.825" fill="#fcc5c0" data-idx="494">
  
  
</rect><rect x="644.007568359375" y="427.8" width="90.81481170654297" height="25.825" fill="#fa9fb5" data-idx="497">
  
  
</rect><rect x="734.8223876953125" y="427.8" width="206.00755310058594" height="25.825" fill="#f768a1" data-idx="500">
  
  
</rect><rect x="940.8299560546875" y="427.8" width="329.03778076171875" height="25.825" fill="#dd3497" data-idx="503">
  
  
</rect><rect x="1268.86767578125" y="427.8" width="242.0566864013672" height="25.825" fill="#ae017e" data-idx="506">
  
  
</rect><rect x="1510.920654296875" y="427.8" width="273.1587219238281" height="25.825" fill="#7a0177" data-idx="509">
  
  
</rect><rect x="1783.079345703125" y="427.8" width="136.92063903808594" height="25.825" fill="#49006a" data-idx="512">
  
  
</rect><rect x="0" y="451.7" width="50.76201629638672" height="25.825" fill="#fff7f3" data-idx="515">
  
  
</rect><rect x="49.76201629638672" y="451.7" width="239.1111297607422" height="25.825" fill="#fde0dd" data-idx="518">
  
  
</rect><rect x="288.8572692871094" y="451.7" width="187.8888702392578" height="25.825" fill="#fcc5c0" data-idx="521">
  
  
</rect><rect x="475.76202392578125" y="451.7" width="399.4127502441406" height="25.825" fill="#fa9fb5" data-idx="524">
  
  
</rect><rect x="874.1747436523438" y="451.7" width="249.22210693359375" height="25.825" fill="#f768a1" data-idx="527">
  
  
</rect><rect x="1123.3968505859375" y="451.7" width="159.96824645996094" height="25.825" fill="#dd3497" data-idx="530">
  
  
</rect><rect x="1283.3651123046875" y="451.7" width="287.53961181640625" height="25.825" fill="#ae017e" data-idx="533">
  
  
</rect><rect x="1570.888916015625" y="451.7" width="81.19050598144531" height="25.825" fill="#7a0177" data-idx="536">
  
  
</rect><rect x="1652.0634765625" y="451.7" width="267.9364929199219" height="25.825" fill="#49006a" data-idx="539">
  
  
</rect><rect x="0" y="475.5" width="124.04534912109375" height="25.825" fill="#fff7f3" data-idx="542">
  
  
</rect><rect x="123.04534912109375" y="475.5" width="216.97732543945312" height="25.825" fill="#fde0dd" data-idx="545">
  
  
</rect><rect x="340.0188903808594" y="475.5" width="104.78079986572266" height="25.825" fill="#fcc5c0" data-idx="548">
  
  
</rect><rect x="443.7996826171875" y="475.5" width="229.92063903808594" height="25.825" fill="#fa9fb5" data-idx="551">
  
  
</rect><rect x="673.7203369140625" y="475.5" width="257.0718078613281" height="25.825" fill="#f768a1" data-idx="554">
  
  
</rect><rect x="929.7958984375" y="475.5" width="115.89418029785156" height="25.825" fill="#dd3497" data-idx="557">
  
  
</rect><rect x="1045.686279296875" y="475.5" width="293.1285095214844" height="25.825" fill="#ae017e" data-idx="560">
  
  
</rect><rect x="1337.818603515625" y="475.5" width="198.04913330078125" height="25.825" fill="#7a0177" data-idx="563">
  
  
</rect><rect x="1535.8638916015625" y="475.5" width="384.13604736328125" height="25.825" fill="#49006a" data-idx="566">
  
  
</rect><rect x="0" y="499.3" width="136.8072509765625" height="25.825" fill="#fff7f3" data-idx="569">
  
  
</rect><rect x="135.8072509765625" y="499.3" width="204.9357452392578" height="25.825" fill="#fde0dd" data-idx="572">
  
  
</rect><rect x="340.7392272949219" y="499.3" width="405.23052978515625" height="25.825" fill="#fcc5c0" data-idx="575">
  
  
</rect><rect x="744.9735717773438" y="499.3" width="75.06047058105469" height="25.825" fill="#fa9fb5" data-idx="578">
  
  
</rect><rect x="819.0377807617188" y="499.3" width="112.905517578125" height="25.825" fill="#f768a1" data-idx="581">
  
  
</rect><rect x="931.9395141601562" y="499.3" width="149.2532196044922" height="25.825" fill="#dd3497" data-idx="584">
  
  
</rect><rect x="1080.196533203125" y="499.3" width="366.04913330078125" height="25.825" fill="#ae017e" data-idx="587">
  
  
</rect><rect x="1446.2418212890625" y="499.3" width="246.8450469970703" height="25.825" fill="#7a0177" data-idx="590">
  
  
</rect><rect x="1692.0869140625" y="499.3" width="227.91307067871094" height="25.825" fill="#49006a" data-idx="593">
  
  
</rect><rect x="0" y="523.1" width="365.01458740234375" height="25.825" fill="#fff7f3" data-idx="596">
  
  
</rect><rect x="364.01458740234375" y="523.1" width="28.381874084472656" height="25.825" fill="#fde0dd" data-idx="599">
  
  
</rect><rect x="391.3964538574219" y="523.1" width="137.58738708496094" height="25.825" fill="#fcc5c0" data-idx="602">
  
  
</rect><rect x="528.9838256835938" y="523.1" width="286.50323486328125" height="25.825" fill="#fa9fb5" data-idx="605">
  
  
</rect><rect x="814.487060546875" y="523.1" width="187.1990203857422" height="25.825" fill="#f768a1" data-idx="608">
  
  
</rect><rect x="1000.6860961914062" y="523.1" width="228.2750701904297" height="25.825" fill="#dd3497" data-idx="611">
  
  
</rect><rect x="1228.961181640625" y="523.1" width="382.7475891113281" height="25.825" fill="#ae017e" data-idx="614">
  
  
</rect><rect x="1610.708740234375" y="523.1" width="79.55015563964844" height="25.825" fill="#7a0177" data-idx="617">
  
  
</rect><rect x="1689.9078369140625" y="523.1" width="230.09222412109375" height="25.825" fill="#49006a" data-idx="620">
  
  
</rect><rect x="0" y="547" width="301.6715393066406" height="25.825" fill="#fff7f3" data-idx="623">
  
  
</rect><rect x="300.6715393066406" y="547" width="169.00808715820312" height="25.825" fill="#fde0dd" data-idx="626">
  
  
</rect><rect x="468.6795959472656" y="547" width="202.73300170898438" height="25.825" fill="#fcc5c0" data-idx="629">
  
  
</rect><rect x="671.41259765625" y="547" width="197.60354614257812" height="25.825" fill="#fa9fb5" data-idx="632">
  
  
</rect><rect x="868.6650390625" y="547" width="121.83980560302734" height="25.825" fill="#f768a1" data-idx="635">
  
  
</rect><rect x="989.85595703125" y="547" width="214.85438537597656" height="25.825" fill="#dd3497" data-idx="638">
  
  
</rect><rect x="1204.3592529296875" y="547" width="222.96925354003906" height="25.825" fill="#ae017e" data-idx="641">
  
  
</rect><rect x="1426.977294921875" y="547" width="270.4886779785156" height="25.825" fill="#7a0177" data-idx="644">
  
  
</rect><rect x="1696.817138671875" y="547" width="223.182861328125" height="25.825" fill="#49006a" data-idx="647">
  
  
</rect><rect x="0" y="570.8" width="116.16251373291016" height="25.825" fill="#fff7f3" data-idx="650">
  
  
</rect><rect x="115.16251373291016" y="570.8" width="341.8337097167969" height="25.825" fill="#fde0dd" data-idx="653">
  
  
</rect><rect x="456.9962158203125" y="570.8" width="273.9281921386719" height="25.825" fill="#fcc5c0" data-idx="656">
  
  
</rect><rect x="729.9244384765625" y="570.8" width="41.045352935791016" height="25.825" fill="#fa9fb5" data-idx="659">
  
  
</rect><rect x="770.9660034179688" y="570.8" width="219.12094116210938" height="25.825" fill="#f768a1" data-idx="662">
  
  
</rect><rect x="989.0869140625" y="570.8" width="295.04913330078125" height="25.825" fill="#dd3497" data-idx="665">
  
  
</rect><rect x="1283.1361083984375" y="570.8" width="251.91307067871094" height="25.825" fill="#ae017e" data-idx="668">
  
  
</rect><rect x="1535.049072265625" y="570.8" width="146.07936096191406" height="25.825" fill="#7a0177" data-idx="671">
  
  
</rect><rect x="1680.1285400390625" y="570.8" width="239.8715057373047" height="25.825" fill="#49006a" data-idx="674">
  
  
</rect><rect x="0" y="594.6" width="335.0340270996094" height="25.825" fill="#fff7f3" data-idx="677">
  
  
</rect><rect x="334.0340270996094" y="594.6" width="59.950870513916016" height="25.825" fill="#fde0dd" data-idx="680">
  
  
</rect><rect x="393.9811096191406" y="594.6" width="363.9281921386719" height="25.825" fill="#fcc5c0" data-idx="683">
  
  
</rect><rect x="756.9130859375" y="594.6" width="70.07180786132812" height="25.825" fill="#fa9fb5" data-idx="686">
  
  
</rect><rect x="825.9886474609375" y="594.6" width="320.0642395019531" height="25.825" fill="#f768a1" data-idx="689">
  
  
</rect><rect x="1146.049072265625" y="594.6" width="139.8677215576172" height="25.825" fill="#dd3497" data-idx="692">
  
  
</rect><rect x="1284.9168701171875" y="594.6" width="289.1133728027344" height="25.825" fill="#ae017e" data-idx="695">
  
  
</rect><rect x="1574.0302734375" y="594.6" width="294.9811096191406" height="25.825" fill="#7a0177" data-idx="698">
  
  
</rect><rect x="1868.01513671875" y="594.6" width="51.98488235473633" height="25.825" fill="#49006a" data-idx="701">
  
  
</rect><rect x="0" y="618.4" width="347.9962158203125" height="25.825" fill="#fff7f3" data-idx="704">
  
  
</rect><rect x="346.9962158203125" y="618.4" width="176.8715057373047" height="25.825" fill="#fde0dd" data-idx="707">
  
  
</rect><rect x="523.8677368164062" y="618.4" width="193.1511688232422" height="25.825" fill="#fcc5c0" data-idx="710">
  
  
</rect><rect x="716.0189208984375" y="618.4" width="346.0226745605469" height="25.825" fill="#fa9fb5" data-idx="713">
  
  
</rect><rect x="1061.04541015625" y="618.4" width="295.0037841796875" height="25.825" fill="#f768a1" data-idx="716">
  
  
</rect><rect x="1356.04541015625" y="618.4" width="53.935752868652344" height="25.825" fill="#dd3497" data-idx="719">
  
  
</rect><rect x="1408.9810791015625" y="618.4" width="206.21920776367188" height="25.825" fill="#ae017e" data-idx="722">
  
  
</rect><rect x="1614.2041015625" y="618.4" width="92.85260772705078" height="25.825" fill="#7a0177" data-idx="725">
  
  
</rect><rect x="1707.056640625" y="618.4" width="212.9433135986328" height="25.825" fill="#49006a" data-idx="728">
  
  
</rect><rect x="0" y="642.3" width="68.89039611816406" height="25.825" fill="#fff7f3" data-idx="731">
  
  
</rect><rect x="67.89039611816406" y="642.3" width="76.89039611816406" height="25.825" fill="#fde0dd" data-idx="734">
  
  
</rect><rect x="144.78079223632812" y="642.3" width="274.0264587402344" height="25.825" fill="#fcc5c0" data-idx="737">
  
  
</rect><rect x="417.8072509765625" y="642.3" width="249.9357452392578" height="25.825" fill="#fa9fb5" data-idx="740">
  
  
</rect><rect x="667.7391967773438" y="642.3" width="328.9395446777344" height="25.825" fill="#f768a1" data-idx="743">
  
  
</rect><rect x="995.6825561523438" y="642.3" width="249.0037841796875" height="25.825" fill="#dd3497" data-idx="746">
  
  
</rect><rect x="1244.686279296875" y="642.3" width="293.1171569824219" height="25.825" fill="#ae017e" data-idx="749">
  
  
</rect><rect x="1536.803466796875" y="642.3" width="272.0718078613281" height="25.825" fill="#7a0177" data-idx="752">
  
  
</rect><rect x="1808.875244140625" y="642.3" width="111.12471771240234" height="25.825" fill="#49006a" data-idx="755">
  
  
</rect><rect x="0" y="666.1" width="270.14288330078125" height="25.825" fill="#fff7f3" data-idx="758">
  
  
</rect><rect x="269.14288330078125" y="666.1" width="264.25384521484375" height="25.825" fill="#fde0dd" data-idx="761">
  
  
</rect><rect x="532.396728515625" y="666.1" width="315.1111145019531" height="25.825" fill="#fcc5c0" data-idx="764">
  
  
</rect><rect x="847.4920043945312" y="666.1" width="260.47625732421875" height="25.825" fill="#fa9fb5" data-idx="767">
  
  
</rect><rect x="1106.984130859375" y="666.1" width="135.07937622070312" height="25.825" fill="#f768a1" data-idx="770">
  
  
</rect><rect x="1242.0634765625" y="666.1" width="211.4919891357422" height="25.825" fill="#dd3497" data-idx="773">
  
  
</rect><rect x="1453.5396728515625" y="666.1" width="167.4921417236328" height="25.825" fill="#ae017e" data-idx="776">
  
  
</rect><rect x="1621.03173828125" y="666.1" width="144.73011779785156" height="25.825" fill="#7a0177" data-idx="779">
  
  
</rect><rect x="1764.7618408203125" y="666.1" width="155.23812866210938" height="25.825" fill="#49006a" data-idx="782">
  
  
</rect><rect x="0" y="689.9" width="298.595458984375" height="25.825" fill="#fff7f3" data-idx="785">
  
  
</rect><rect x="297.595458984375" y="689.9" width="91.85438537597656" height="25.825" fill="#fde0dd" data-idx="788">
  
  
</rect><rect x="389.0987243652344" y="689.9" width="282.97735595703125" height="25.825" fill="#fcc5c0" data-idx="791">
  
  
</rect><rect x="671.4271850585938" y="689.9" width="78.46601104736328" height="25.825" fill="#fa9fb5" data-idx="794">
  
  
</rect><rect x="749.2443237304688" y="689.9" width="297.182861328125" height="25.825" fill="#f768a1" data-idx="797">
  
  
</rect><rect x="1046.0760498046875" y="689.9" width="219.38186645507812" height="25.825" fill="#dd3497" data-idx="800">
  
  
</rect><rect x="1265.1068115234375" y="689.9" width="348.817138671875" height="25.825" fill="#ae017e" data-idx="803">
  
  
</rect><rect x="1613.57275390625" y="689.9" width="225.8009796142578" height="25.825" fill="#7a0177" data-idx="806">
  
  
</rect><rect x="1838.7249755859375" y="689.9" width="81.27507781982422" height="25.825" fill="#49006a" data-idx="809">
  
  
</rect><rect x="0" y="713.8" width="318.82537841796875" height="25.825" fill="#fff7f3" data-idx="812">
  
  
</rect><rect x="317.82537841796875" y="713.8" width="142.90475463867188" height="25.825" fill="#fde0dd" data-idx="815">
  
  
</rect><rect x="460.7301330566406" y="713.8" width="213.39688110351562" height="25.825" fill="#fcc5c0" data-idx="818">
  
  
</rect><rect x="674.1111450195312" y="713.8" width="137.76187133789062" height="25.825" fill="#fa9fb5" data-idx="821">
  
  
</rect><rect x="810.8888549804688" y="713.8" width="195.92062377929688" height="25.825" fill="#f768a1" data-idx="824">
  
  
</rect><rect x="1006.7936401367188" y="713.8" width="351.3332214355469" height="25.825" fill="#dd3497" data-idx="827">
  
  
</rect><rect x="1357.1427001953125" y="713.8" width="295.1589050292969" height="25.825" fill="#ae017e" data-idx="830">
  
  
</rect><rect x="1651.3175048828125" y="713.8" width="226.61898803710938" height="25.825" fill="#7a0177" data-idx="833">
  
  
</rect><rect x="1876.952392578125" y="713.8" width="43.04762649536133" height="25.825" fill="#49006a" data-idx="836">
  
  
</rect><rect x="0" y="737.6" width="444.8714904785156" height="25.825" fill="#fff7f3" data-idx="839">
  
  
</rect><rect x="443.8714904785156" y="737.6" width="48.313682556152344" height="25.825" fill="#fde0dd" data-idx="842">
  
  
</rect><rect x="492.181396484375" y="737.6" width="18.10582160949707" height="25.825" fill="#fcc5c0" data-idx="845">
  
  
</rect><rect x="509.2872314453125" y="737.6" width="174.1284942626953" height="25.825" fill="#fa9fb5" data-idx="848">
  
  
</rect><rect x="682.4194946289062" y="737.6" width="587.5691528320312" height="25.825" fill="#f768a1" data-idx="851">
  
  
</rect><rect x="1269.98486328125" y="737.6" width="93.03023529052734" height="25.825" fill="#dd3497" data-idx="854">
  
  
</rect><rect x="1363.01513671875" y="737.6" width="320.7959289550781" height="25.825" fill="#ae017e" data-idx="857">
  
  
</rect><rect x="1683.8072509765625" y="737.6" width="119.15117645263672" height="25.825" fill="#7a0177" data-idx="860">
  
  
</rect><rect x="1801.962158203125" y="737.6" width="118.03779602050781" height="25.825" fill="#49006a" data-idx="863">
  
  
</rect><rect x="0" y="761.4" width="197.82537841796875" height="25.825" fill="#fff7f3" data-idx="866">
  
  
</rect><rect x="196.82537841796875" y="761.4" width="337.0477600097656" height="25.825" fill="#fde0dd" data-idx="869">
  
  
</rect><rect x="533.8572387695312" y="761.4" width="263.9047546386719" height="25.825" fill="#fcc5c0" data-idx="872">
  
  
</rect><rect x="797.7620239257812" y="761.4" width="142.26988220214844" height="25.825" fill="#fa9fb5" data-idx="875">
  
  
</rect><rect x="939.0477905273438" y="761.4" width="275.96826171875" height="25.825" fill="#f768a1" data-idx="878">
  
  
</rect><rect x="1215.0001220703125" y="761.4" width="215.8730010986328" height="25.825" fill="#dd3497" data-idx="881">
  
  
</rect><rect x="1429.8890380859375" y="761.4" width="125.66661834716797" height="25.825" fill="#ae017e" data-idx="884">
  
  
</rect><rect x="1554.5556640625" y="761.4" width="189.61898803710938" height="25.825" fill="#7a0177" data-idx="887">
  
  
</rect><rect x="1744.1746826171875" y="761.4" width="175.82537841796875" height="25.825" fill="#49006a" data-idx="890">
  
  
</rect><rect x="0" y="785.2" width="298.6983642578125" height="25.825" fill="#fff7f3" data-idx="893">
  
  
</rect><rect x="297.6983642578125" y="785.2" width="293.3492431640625" height="25.825" fill="#fde0dd" data-idx="896">
  
  
</rect><rect x="591.047607421875" y="785.2" width="154.23812866210938" height="25.825" fill="#fcc5c0" data-idx="899">
  
  
</rect><rect x="744.2857666015625" y="785.2" width="275.7460021972656" height="25.825" fill="#fa9fb5" data-idx="902">
  
  
</rect><rect x="1020.015869140625" y="785.2" width="152.90475463867188" height="25.825" fill="#f768a1" data-idx="905">
  
  
</rect><rect x="1172.920654296875" y="785.2" width="255.47625732421875" height="25.825" fill="#dd3497" data-idx="908">
  
  
</rect><rect x="1428.3968505859375" y="785.2" width="278.6507568359375" height="25.825" fill="#ae017e" data-idx="911">
  
  
</rect><rect x="1706.047607421875" y="785.2" width="49.3175048828125" height="25.825" fill="#7a0177" data-idx="914">
  
  
</rect><rect x="1754.3651123046875" y="785.2" width="165.63487243652344" height="25.825" fill="#49006a" data-idx="917">
  
  
</rect><rect x="0" y="809" width="269.007568359375" height="25.825" fill="#fff7f3" data-idx="920">
  
  
</rect><rect x="268.007568359375" y="809" width="242.05291748046875" height="25.825" fill="#fde0dd" data-idx="923">
  
  
</rect><rect x="510.05670166015625" y="809" width="154.97354125976562" height="25.825" fill="#fcc5c0" data-idx="926">
  
  
</rect><rect x="664.0302124023438" y="809" width="214.94708251953125" height="25.825" fill="#fa9fb5" data-idx="929">
  
  
</rect><rect x="877.977294921875" y="809" width="248.85638427734375" height="25.825" fill="#f768a1" data-idx="932">
  
  
</rect><rect x="1126.8299560546875" y="809" width="203.04534912109375" height="25.825" fill="#dd3497" data-idx="935">
  
  
</rect><rect x="1328.8790283203125" y="809" width="145.9395294189453" height="25.825" fill="#ae017e" data-idx="938">
  
  
</rect><rect x="1474.8148193359375" y="809" width="170.1511688232422" height="25.825" fill="#7a0177" data-idx="941">
  
  
</rect><rect x="1643.9697265625" y="809" width="276.0302429199219" height="25.825" fill="#49006a" data-idx="944">
  
  
</rect><rect x="0" y="832.9" width="151.8397979736328" height="25.825" fill="#fff7f3" data-idx="947">
  
  
</rect><rect x="150.8397979736328" y="832.9" width="268.3204040527344" height="25.825" fill="#fde0dd" data-idx="950">
  
  
</rect><rect x="419.1601867675781" y="832.9" width="207.9385223388672" height="25.825" fill="#fcc5c0" data-idx="953">
  
  
</rect><rect x="626.4498291015625" y="832.9" width="160.43527221679688" height="25.825" fill="#fa9fb5" data-idx="956">
  
  
</rect><rect x="786.5339965820312" y="832.9" width="325.1375427246094" height="25.825" fill="#f768a1" data-idx="959">
  
  
</rect><rect x="1111.6715087890625" y="832.9" width="141.57281494140625" height="25.825" fill="#dd3497" data-idx="962">
  
  
</rect><rect x="1252.8931884765625" y="832.9" width="74.86246490478516" height="25.825" fill="#ae017e" data-idx="965">
  
  
</rect><rect x="1327.1068115234375" y="832.9" width="295.0841369628906" height="25.825" fill="#7a0177" data-idx="968">
  
  
</rect><rect x="1621.83984375" y="832.9" width="298.1601867675781" height="25.825" fill="#49006a" data-idx="971">
  
  
</rect><rect x="0" y="856.7" width="35.10679626464844" height="25.825" fill="#fff7f3" data-idx="974">
  
  
</rect><rect x="34.10679626464844" y="856.7" width="47.252418518066406" height="25.825" fill="#fde0dd" data-idx="977">
  
  
</rect><rect x="80.35921478271484" y="856.7" width="138.3203887939453" height="25.825" fill="#fcc5c0" data-idx="980">
  
  
</rect><rect x="217.6796112060547" y="856.7" width="443.9012756347656" height="25.825" fill="#fa9fb5" data-idx="983">
  
  
</rect><rect x="661.5808715820312" y="856.7" width="203.0226593017578" height="25.825" fill="#f768a1" data-idx="986">
  
  
</rect><rect x="864.25244140625" y="856.7" width="353.3430480957031" height="25.825" fill="#dd3497" data-idx="989">
  
  
</rect><rect x="1217.244384765625" y="856.7" width="247.5420684814453" height="25.825" fill="#ae017e" data-idx="992">
  
  
</rect><rect x="1464.1375732421875" y="856.7" width="309.8090515136719" height="25.825" fill="#7a0177" data-idx="995">
  
  
</rect><rect x="1773.595458984375" y="856.7" width="146.40452575683594" height="25.825" fill="#49006a" data-idx="998">
  
  
</rect><rect x="0" y="880.5" width="51.05669021606445" height="25.825" fill="#fff7f3" data-idx="1001">
  
  
</rect><rect x="50.05669021606445" y="880.5" width="95.75812530517578" height="25.825" fill="#fde0dd" data-idx="1004">
  
  
</rect><rect x="144.8148193359375" y="880.5" width="298.03778076171875" height="25.825" fill="#fcc5c0" data-idx="1007">
  
  
</rect><rect x="442.84881591796875" y="880.5" width="304" height="25.825" fill="#fa9fb5" data-idx="1010">
  
  
</rect><rect x="746.8488159179688" y="880.5" width="183.0377960205078" height="25.825" fill="#f768a1" data-idx="1013">
  
  
</rect><rect x="928.890380859375" y="880.5" width="23.177627563476562" height="25.825" fill="#dd3497" data-idx="1016">
  
  
</rect><rect x="951.07177734375" y="880.5" width="317.1700744628906" height="25.825" fill="#ae017e" data-idx="1019">
  
  
</rect><rect x="1268.2418212890625" y="880.5" width="466.85638427734375" height="25.825" fill="#7a0177" data-idx="1022">
  
  
</rect><rect x="1734.10205078125" y="880.5" width="185.89796447753906" height="25.825" fill="#49006a" data-idx="1025">
  
  
</rect><rect x="0" y="904.4" width="338.905517578125" height="25.825" fill="#fff7f3" data-idx="1028">
  
  
</rect><rect x="337.905517578125" y="904.4" width="147.07936096191406" height="25.825" fill="#fde0dd" data-idx="1031">
  
  
</rect><rect x="483.9848937988281" y="904.4" width="278.8412780761719" height="25.825" fill="#fcc5c0" data-idx="1034">
  
  
</rect><rect x="761.8299560546875" y="904.4" width="128.11337280273438" height="25.825" fill="#fa9fb5" data-idx="1037">
  
  
</rect><rect x="889.9395141601562" y="904.4" width="196.01512145996094" height="25.825" fill="#f768a1" data-idx="1040">
  
  
</rect><rect x="1084.95458984375" y="904.4" width="235.05291748046875" height="25.825" fill="#dd3497" data-idx="1043">
  
  
</rect><rect x="1319.0113525390625" y="904.4" width="190.04534912109375" height="25.825" fill="#ae017e" data-idx="1046">
  
  
</rect><rect x="1509.0528564453125" y="904.4" width="194.97354125976562" height="25.825" fill="#7a0177" data-idx="1049">
  
  
</rect><rect x="1703.0302734375" y="904.4" width="216.9697723388672" height="25.825" fill="#49006a" data-idx="1052">
  
  
</rect><rect x="0" y="928.2" width="334.9886474609375" height="25.825" fill="#fff7f3" data-idx="1055">
  
  
</rect><rect x="333.9886474609375" y="928.2" width="189.1360626220703" height="25.825" fill="#fde0dd" data-idx="1058">
  
  
</rect><rect x="522.1246948242188" y="928.2" width="25.056690216064453" height="25.825" fill="#fcc5c0" data-idx="1061">
  
  
</rect><rect x="547.181396484375" y="928.2" width="104.81103515625" height="25.825" fill="#fa9fb5" data-idx="1064">
  
  
</rect><rect x="650.9962158203125" y="928.2" width="164.0340118408203" height="25.825" fill="#f768a1" data-idx="1067">
  
  
</rect><rect x="814.0339965820312" y="928.2" width="138.8072509765625" height="25.825" fill="#dd3497" data-idx="1070">
  
  
</rect><rect x="952.8374633789062" y="928.2" width="255.95086669921875" height="25.825" fill="#ae017e" data-idx="1073">
  
  
</rect><rect x="1207.788330078125" y="928.2" width="386.14361572265625" height="25.825" fill="#7a0177" data-idx="1076">
  
  
</rect><rect x="1592.935791015625" y="928.2" width="327.0642395019531" height="25.825" fill="#49006a" data-idx="1079">
  
  
</rect><g data-idx="1082"></g></g><text data-watermark="true" text-anchor="middle" dominant-baseline="middle" stroke-opacity="0.1" fill="black" fill-opacity="0.1" stroke="white" stroke-width="1" font-size="15.0" x="960.0" y="476.5" data-idx="1083" style="opacity: 1; font-size: 15px;">LOADING.IO</text></svg>